<?xml version="1.0" encoding="utf-8"?>
<!-- Generator: Adobe Illustrator 24.0.3, SVG Export Plug-In . SVG Version: 6.00 Build 0)  -->
<svg version="1.1" id="Calque_1" xmlns="http://www.w3.org/2000/svg" xmlns:xlink="http://www.w3.org/1999/xlink" x="0px" y="0px"
	 viewBox="0 0 412.04 123.98" style="enable-background:new 0 0 412.04 123.98;" xml:space="preserve">
<style type="text/css">
	.st0{fill:#1E1E1C;}
</style>
<g>
	<path class="st0" d="M161.97,62.71v15.55c-1.48,0.18-3.15,0.28-5.09,0.28c-8.51,0-13.88-6.11-13.88-15.83
		c0-9.9,5.18-15.83,14.16-15.83c4.07,0,7.87,1.02,10.92,3.05c4.9-2.68,8.24-8.61,9.07-13.88c-4.54-2.87-11.2-5.09-19.71-5.09
		c-19.9,0-32.58,13.42-32.58,32.02c0,18.7,11.75,31.19,32.02,31.19c11.2,0,17.12-2.41,21.75-4.72V62.71
		c-2.78-0.46-5.55-0.74-8.33-0.74C167.53,61.97,164.75,62.25,161.97,62.71z"/>
	<path class="st0" d="M43.42,33.19v59.23c2.96,0.46,5.74,0.65,8.51,0.65c2.78,0,5.55-0.18,8.15-0.65V33.19
		c-2.96-0.46-5.74-0.65-8.52-0.65C48.79,32.54,46.01,32.72,43.42,33.19z"/>
	<path class="st0" d="M106.26,32.63c-2.59,14.34-6.29,29.34-10.92,43.78c-4.81-14.25-8.98-28.88-11.75-43.78
		c-1.48-0.09-3.33-0.19-5.28-0.19c-4.26,0-9.44,0.46-13.05,1.11c4.35,20.27,11.2,39.89,20.36,58.68c3.42,0.55,5.92,0.65,9.16,0.65
		c2.87,0,5.65-0.09,8.51-0.65c9.63-19.44,16.38-39.06,20.27-58.68c-1.67-0.55-8.61-1.11-13.24-1.11
		C108.67,32.45,107.28,32.54,106.26,32.63z"/>
	<path class="st0" d="M240.26,80.52c-3.42,2.78-7.31,4.81-15.27,4.81c-11.85,0-21.47-9.25-21.47-24.16
		c0-15.18,9.72-24.34,22.03-24.34c5.65,0,9.9,1.48,13.88,4.26c2.22-1.11,3.79-3.61,4.16-5.83c-4.07-3.06-9.9-5.46-18.05-5.46
		c-16.75,0-29.9,13.14-29.9,31.38c0,18.23,11.85,31.19,29.34,31.19c9.81,0,15.64-3.15,19.07-6.11
		C243.59,83.48,242.76,82,240.26,80.52z"/>
	<path class="st0" d="M262.47,84.12V31.46c-1.3-0.28-2.59-0.46-3.89-0.46c-1.2,0-2.31,0.18-3.61,0.46v59.42h34.62
		c0.37-1.3,0.46-2.5,0.46-3.61c0-1.02-0.09-2.04-0.46-3.15H262.47z"/>
	<path class="st0" d="M299.95,31.46v59.42c1.39,0.28,2.5,0.46,3.79,0.46c1.3,0,2.41-0.19,3.7-0.46V31.46
		c-1.3-0.46-2.5-0.56-3.7-0.56C302.54,30.91,301.34,31,299.95,31.46z"/>
	<path class="st0" d="M364.83,80.52c-3.42,2.78-7.31,4.81-15.27,4.81c-11.85,0-21.47-9.25-21.47-24.16
		c0-15.18,9.72-24.34,22.03-24.34c5.65,0,9.9,1.48,13.88,4.26c2.22-1.11,3.79-3.61,4.16-5.83c-4.07-3.06-9.9-5.46-18.05-5.46
		c-16.75,0-29.89,13.14-29.89,31.38c0,18.23,11.85,31.19,29.34,31.19c9.81,0,15.64-3.15,19.07-6.11
		C368.16,83.48,367.33,82,364.83,80.52z"/>
</g>
</svg>
