<?xml version="1.0" encoding="utf-8"?>
<!-- Generator: Adobe Illustrator 24.0.3, SVG Export Plug-In . SVG Version: 6.00 Build 0)  -->
<svg version="1.1" id="Calque_1" xmlns="http://www.w3.org/2000/svg" xmlns:xlink="http://www.w3.org/1999/xlink" x="0px" y="0px"
	 viewBox="0 0 141.73 141.73" style="enable-background:new 0 0 141.73 141.73;" xml:space="preserve">
<style type="text/css">
	.st0{fill:#1D1D1B;}
	.st1{fill:#F6ACF1;}
</style>
<g>
	<path class="st0" d="M21.03,104.9V86.68c0.8-0.14,1.65-0.2,2.51-0.2c0.85,0,1.71,0.06,2.62,0.2v18.22c-0.8,0.14-1.65,0.2-2.51,0.2
		S21.95,105.05,21.03,104.9z"/>
	<path class="st0" d="M45.69,86.8c-1.2,6.04-3.27,12.07-6.23,18.05c-0.88,0.17-1.74,0.2-2.62,0.2c-1,0-1.77-0.03-2.82-0.2
		c-2.82-5.78-4.93-11.81-6.26-18.05c1.11-0.2,2.7-0.34,4.01-0.34c0.6,0,1.17,0.03,1.62,0.06c0.85,4.58,2.14,9.08,3.62,13.47
		c1.42-4.44,2.56-9.05,3.36-13.47c0.31-0.03,0.74-0.06,1.25-0.06C43.04,86.46,45.18,86.63,45.69,86.8z"/>
	<path class="st0" d="M62.62,95.77v8.23c-1.42,0.71-3.25,1.45-6.69,1.45c-6.23,0-9.85-3.84-9.85-9.59c0-5.72,3.9-9.85,10.02-9.85
		c2.62,0,4.67,0.68,6.06,1.57c-0.26,1.62-1.28,3.44-2.79,4.27c-0.94-0.63-2.11-0.94-3.36-0.94c-2.76,0-4.36,1.82-4.36,4.87
		c0,2.99,1.65,4.87,4.27,4.87c0.6,0,1.11-0.03,1.57-0.09v-4.78c0.85-0.14,1.71-0.23,2.56-0.23S61.77,95.62,62.62,95.77z"/>
	<g>
		<path class="st0" d="M76.86,95.29c0-5.61,4.04-9.65,9.2-9.65c2.5,0,4.3,0.74,5.55,1.68c-0.11,0.68-0.6,1.45-1.28,1.79
			c-1.22-0.85-2.53-1.31-4.27-1.31c-3.79,0-6.78,2.82-6.78,7.49c0,4.58,2.96,7.43,6.6,7.43c2.45,0,3.64-0.63,4.7-1.48
			c0.77,0.46,1.03,0.91,1.17,1.76c-1.05,0.91-2.85,1.88-5.86,1.88C80.5,104.89,76.86,100.9,76.86,95.29z"/>
		<path class="st0" d="M105.9,103.32c0,0.34-0.03,0.71-0.14,1.11H95.11V86.15c0.4-0.09,0.74-0.14,1.11-0.14c0.4,0,0.8,0.06,1.2,0.14
			v16.2h8.34C105.87,102.69,105.9,103.01,105.9,103.32z"/>
	</g>
	<path class="st0" d="M108.94,104.43V86.15c0.43-0.14,0.8-0.17,1.17-0.17c0.37,0,0.74,0.03,1.14,0.17v18.28
		c-0.4,0.09-0.74,0.14-1.14,0.14C109.71,104.57,109.37,104.52,108.94,104.43z"/>
	<path class="st0" d="M115.17,95.29c0-5.61,4.04-9.65,9.2-9.65c2.51,0,4.3,0.74,5.55,1.68c-0.11,0.68-0.6,1.45-1.28,1.79
		c-1.22-0.85-2.53-1.31-4.27-1.31c-3.79,0-6.78,2.82-6.78,7.49c0,4.58,2.96,7.43,6.6,7.43c2.45,0,3.64-0.63,4.7-1.48
		c0.77,0.46,1.03,0.91,1.17,1.76c-1.05,0.91-2.85,1.88-5.86,1.88C118.82,104.89,115.17,100.9,115.17,95.29z"/>
	<path class="st1" d="M66.98,122.37c-1.06,1.57-0.65,3.7,0.92,4.76c1.57,1.06,3.7,0.65,4.76-0.92c1.06-1.57,0.65-3.7-0.92-4.76
		C70.17,120.39,68.04,120.8,66.98,122.37z"/>
	<path class="st1" d="M115.23,23.66h-5.57v17.01h5.57v-6.34h8.61V56v3.63v0.04c0,9.42-7.67,17.09-17.09,17.09H32.88
		c-9.42,0-17.09-7.67-17.09-17.09V56V34.33h8.05v6.34h5.57V23.66h-5.57v6.55H11.67V56v3.67v1.89h0.09
		c0.96,10.82,10.06,19.33,21.12,19.33h34.87v33.78c-2.41,0.51-4.63,1.91-6.11,4.11c-1.48,2.18-2.01,4.81-1.51,7.4
		c0.5,2.59,1.98,4.82,4.16,6.3c1.69,1.14,3.61,1.69,5.51,1.69c3.17,0,6.28-1.52,8.19-4.34c1.48-2.18,2.01-4.81,1.51-7.4
		c-0.5-2.59-1.98-4.82-4.16-6.3c-1.08-0.73-2.26-1.21-3.46-1.47V80.88h34.87c11.7,0,21.21-9.52,21.21-21.21v-0.04V56V30.21h-12.74
		V23.66z M73.03,119.53c1.27,0.86,2.13,2.16,2.42,3.67c0.29,1.51-0.02,3.03-0.88,4.3c-1.77,2.62-5.35,3.31-7.97,1.54
		c-1.27-0.86-2.13-2.16-2.42-3.67c-0.29-1.51,0.02-3.03,0.88-4.3c1.11-1.64,2.92-2.52,4.76-2.52
		C70.93,118.55,72.05,118.87,73.03,119.53z"/>
	<path class="st1" d="M57.27,64.41h-7.14c-1.1,0-2,0.89-2,2s0.89,2,2,2h7.14h25.09h8.69c1.1,0,2-0.89,2-2s-0.89-2-2-2h-8.69v-7.53
		h24.39V7.58H32.88v49.3h24.39V64.41z M78.36,64.41h-17.1v-7.38h17.1V64.41z M36.88,52.88v-41.3h65.88v41.3H36.88z"/>
	<path class="st1" d="M85.85,30.55c0-1.01-0.69-1.66-2.2-1.66c-0.41,0-0.79,0.02-1.17,0.05v3.43c0.37,0.02,0.76,0.02,1.18,0.02
		C85.25,32.4,85.85,31.58,85.85,30.55z"/>
	<path class="st1" d="M41.04,48.18h57.1V16.56h-57.1V48.18z M79.95,27.12c1.01-0.22,2.32-0.37,3.6-0.37c3.52,0,4.89,1.51,4.89,3.77
		c0,2.61-1.86,4.06-4.77,4.06c-0.41,0-0.8,0-1.18-0.02v3.33c-0.41,0.08-0.83,0.1-1.25,0.1c-0.42,0-0.83-0.02-1.29-0.1V27.12z
		 M71.51,27.03c0.42-0.07,0.83-0.12,1.25-0.12c0.42,0,0.85,0.05,1.27,0.12v8.59h4.46c0.08,0.39,0.12,0.76,0.12,1.13
		c0,0.37-0.03,0.76-0.12,1.13h-6.98V27.03z M62.32,27.03h7.17c0.1,0.36,0.14,0.76,0.14,1.13c0,0.37-0.03,0.75-0.14,1.12h-4.65v1.96
		h4.14c0.08,0.37,0.12,0.74,0.12,1.12c0,0.37-0.03,0.73-0.12,1.1h-4.14v2.18h4.82c0.08,0.37,0.12,0.74,0.12,1.12
		c0,0.37-0.03,0.76-0.12,1.13h-7.34V27.03z M50.75,27.05c0.39-0.07,0.79-0.1,1.22-0.1c0.42,0,0.85,0.03,1.3,0.1v4.19h4.26v-4.19
		c0.41-0.07,0.83-0.1,1.25-0.1c0.42,0,0.83,0.03,1.29,0.1v10.84c-0.41,0.07-0.81,0.1-1.23,0.1c-0.42,0-0.85-0.03-1.3-0.1v-4.33
		h-4.26v4.33c-0.41,0.07-0.83,0.1-1.25,0.1c-0.42,0-0.83-0.03-1.27-0.1V27.05z"/>
</g>
<g>
	<path d="M137.3,88.6c0,1.54-1.21,2.75-2.78,2.75c-1.56,0-2.8-1.21-2.8-2.75c0-1.51,1.24-2.72,2.8-2.72
		C136.1,85.88,137.3,87.09,137.3,88.6z M132.42,88.6c0,1.21,0.89,2.17,2.12,2.17c1.19,0,2.07-0.96,2.07-2.15
		c0-1.21-0.88-2.19-2.09-2.19C133.31,86.43,132.42,87.4,132.42,88.6z M134.09,90.02h-0.63v-2.72c0.25-0.05,0.6-0.08,1.04-0.08
		c0.51,0,0.75,0.08,0.94,0.2c0.15,0.12,0.26,0.33,0.26,0.6c0,0.3-0.23,0.53-0.56,0.63v0.03c0.26,0.1,0.41,0.3,0.5,0.66
		c0.08,0.41,0.13,0.58,0.2,0.68h-0.68c-0.08-0.1-0.13-0.35-0.22-0.66c-0.05-0.3-0.22-0.43-0.56-0.43h-0.3V90.02z M134.11,88.48h0.3
		c0.35,0,0.63-0.12,0.63-0.4c0-0.25-0.18-0.41-0.58-0.41c-0.17,0-0.28,0.02-0.35,0.03V88.48z"/>
</g>
</svg>
