<?xml version="1.0" standalone="no"?>
<!DOCTYPE svg PUBLIC "-//W3C//DTD SVG 20010904//EN"
 "http://www.w3.org/TR/2001/REC-SVG-20010904/DTD/svg10.dtd">
<svg version="1.0" xmlns="http://www.w3.org/2000/svg"
 width="1200.000000pt" height="330.000000pt" viewBox="0 0 1200.000000 330.000000"
 preserveAspectRatio="xMidYMid meet">
<metadata>
Created by potrace 1.16, written by Peter Selinger 2001-2019
</metadata>
<g transform="translate(0.000000,330.000000) scale(0.100000,-0.100000)"
fill="#000000" stroke="none">
<path d="M999 3077 c-97 -36 -149 -108 -157 -218 l-5 -69 45 0 45 0 6 56 c7
64 25 97 70 124 29 18 51 20 229 20 l196 0 32 -26 c42 -36 60 -74 60 -129 l0
-45 45 0 45 0 0 60 c0 99 -40 168 -125 213 -37 20 -57 22 -245 24 -151 2 -215
-1 -241 -10z"/>
<path d="M6819 2859 c-74 -55 -135 -104 -137 -109 -2 -5 3 -20 10 -33 l13 -25
173 56 c94 31 172 59 172 64 0 11 -84 147 -91 148 -3 0 -66 -45 -140 -101z"/>
<path d="M342 2690 c-18 -11 -41 -34 -52 -52 -19 -32 -20 -52 -20 -588 0 -630
-3 -603 80 -647 43 -23 47 -23 437 -23 l393 0 0 -60 0 -60 -163 0 c-168 0
-187 -4 -187 -41 0 -10 7 -25 16 -33 13 -14 62 -16 383 -16 386 0 391 1 391
45 0 41 -16 45 -187 45 l-163 0 0 60 0 59 408 3 409 3 35 27 c70 53 69 48 66
653 -3 503 -4 542 -21 570 -10 17 -31 39 -45 50 -26 20 -45 20 -887 23 -844 2
-861 2 -893 -18z m1693 -640 l0 -515 -807 -3 -808 -2 0 513 c0 283 3 517 7
520 3 4 367 6 807 5 l801 -3 0 -515z"/>
<path d="M1120 2275 l0 -115 -114 0 c-133 0 -126 6 -126 -110 0 -116 -7 -110
126 -110 l114 0 0 -115 0 -116 108 3 107 3 3 112 3 112 112 3 112 3 0 105 0
105 -112 3 -112 3 -3 112 -3 112 -107 3 -108 3 0 -116z"/>
<path d="M9337 2575 c-179 -49 -336 -210 -376 -385 -16 -69 -13 -219 5 -281
43 -146 139 -261 275 -328 199 -98 436 -73 586 63 l48 44 -81 82 -81 83 -39
-31 c-52 -42 -114 -62 -188 -62 -243 0 -366 314 -198 501 55 62 108 90 182 96
68 7 139 -14 199 -58 23 -16 44 -28 48 -28 5 1 41 37 82 80 l74 79 -19 21
c-34 39 -136 99 -202 119 -76 24 -238 26 -315 5z"/>
<path d="M10172 2071 c-133 -285 -242 -524 -242 -530 0 -7 41 -11 124 -11
l123 0 36 80 36 80 194 0 194 0 34 -80 34 -80 128 0 c70 0 127 3 127 8 -1 4
-110 241 -243 527 -239 512 -243 520 -273 523 l-31 3 -241 -520z m364 -168
c-2 -2 -46 -2 -98 -1 l-95 3 50 105 49 105 49 -104 c27 -57 48 -106 45 -108z"/>
<path d="M3090 2055 l0 -525 65 0 65 0 2 247 3 246 235 -246 235 -247 88 0
c48 0 87 3 87 8 0 4 -75 81 -166 172 -91 91 -210 213 -265 272 l-100 106 261
244 262 243 -87 3 -87 3 -155 -148 c-86 -81 -191 -181 -234 -221 l-79 -74 0
221 0 221 -65 0 -65 0 0 -525z"/>
<path d="M4030 2055 l0 -525 65 0 65 0 0 525 0 525 -65 0 -65 0 0 -525z"/>
<path d="M4340 2525 l0 -55 140 0 140 0 0 -447 c0 -247 3 -458 6 -470 6 -21
13 -23 65 -23 l59 0 0 470 0 470 140 0 140 0 0 55 0 55 -345 0 -345 0 0 -55z"/>
<path d="M5306 2563 c-5 -17 -186 -1018 -186 -1029 0 -2 55 -3 123 -2 l122 3
35 202 c19 111 37 204 40 206 3 3 64 -92 136 -211 72 -119 135 -217 141 -219
5 -2 70 96 143 217 73 121 135 218 137 216 4 -4 72 -383 73 -403 0 -10 32 -13
125 -13 125 0 125 0 120 23 -6 25 -185 1016 -185 1023 0 2 -12 4 -27 4 -26 -1
-37 -17 -143 -208 -63 -114 -143 -258 -178 -320 l-64 -113 -178 318 c-154 275
-181 318 -203 321 -17 2 -27 -2 -31 -15z"/>
<path d="M6520 2055 l0 -525 340 0 340 0 0 115 0 115 -220 0 -220 0 0 95 0 95
185 0 185 0 0 115 0 115 -185 0 -185 0 0 85 0 85 220 0 220 0 0 115 0 115
-340 0 -340 0 0 -525z"/>
<path d="M7420 2055 l0 -527 243 4 c213 4 250 7 308 26 169 56 310 206 348
372 16 69 13 209 -5 271 -36 120 -119 232 -224 299 -104 66 -139 73 -417 78
l-253 4 0 -527z m499 264 c102 -51 154 -137 155 -259 0 -123 -53 -213 -159
-268 -41 -21 -68 -26 -152 -30 l-103 -5 0 297 0 296 98 0 c91 0 104 -3 161
-31z"/>
<path d="M8530 2055 l0 -525 125 0 125 0 0 525 0 525 -125 0 -125 0 0 -525z"/>
<path d="M11090 2055 l0 -525 310 0 310 0 0 115 0 115 -190 0 -190 0 0 410 0
410 -120 0 -120 0 0 -525z"/>
<path d="M1040 525 l0 -205 35 0 c34 0 35 1 35 38 0 28 7 45 24 61 l25 23 38
-61 c35 -57 40 -61 75 -61 21 0 38 4 38 10 0 5 -23 45 -51 89 l-51 81 20 27
c11 16 32 39 46 52 36 34 33 41 -16 41 -40 0 -47 -4 -95 -61 l-53 -61 0 116 0
116 -35 0 -35 0 0 -205z"/>
<path d="M5010 665 c0 -62 -1 -65 -19 -55 -29 15 -108 12 -136 -6 -48 -31 -70
-139 -41 -208 27 -66 99 -94 170 -66 17 6 26 6 26 0 0 -6 16 -10 35 -10 l35 0
0 205 0 205 -35 0 -35 0 0 -65z m-22 -121 c18 -13 22 -25 22 -74 0 -49 -4 -61
-22 -74 -56 -39 -108 -2 -108 76 0 76 52 111 108 72z"/>
<path d="M6910 665 c0 -62 -1 -65 -19 -55 -11 5 -43 10 -71 10 -45 0 -56 -4
-80 -30 -61 -66 -49 -219 21 -255 32 -17 86 -19 123 -5 17 6 26 6 26 0 0 -6
16 -10 35 -10 l35 0 0 205 0 205 -35 0 -35 0 0 -65z m-22 -121 c18 -13 22 -25
22 -74 0 -49 -4 -61 -22 -74 -56 -40 -108 -4 -108 74 0 78 52 114 108 74z"/>
<path d="M10400 525 l0 -205 35 0 35 0 0 205 0 205 -35 0 -35 0 0 -205z"/>
<path d="M270 520 l0 -200 125 0 125 0 0 35 0 35 -90 0 -90 0 0 165 0 165 -35
0 -35 0 0 -200z"/>
<path d="M1510 660 c0 -36 -2 -40 -25 -40 -21 0 -25 -5 -25 -30 0 -25 4 -30
25 -30 25 0 25 0 25 -99 0 -96 1 -100 26 -120 18 -14 41 -21 70 -21 42 0 44 1
44 30 0 25 -4 30 -23 30 -38 0 -47 19 -47 102 l0 78 35 0 c32 0 35 2 35 30 0
28 -3 30 -35 30 -34 0 -35 1 -35 40 0 39 -1 40 -35 40 -34 0 -35 -1 -35 -40z"/>
<path d="M10980 660 c0 -36 -2 -40 -25 -40 -21 0 -25 -5 -25 -30 0 -25 4 -30
25 -30 25 0 25 0 25 -95 0 -88 2 -98 25 -120 18 -19 35 -25 70 -25 43 0 45 1
45 30 0 25 -4 30 -25 30 -34 0 -45 27 -45 109 l0 71 35 0 c32 0 35 2 35 30 0
28 -3 30 -35 30 -34 0 -35 1 -35 40 0 39 -1 40 -35 40 -34 0 -35 -1 -35 -40z"/>
<path d="M604 601 c-39 -24 -59 -72 -58 -137 0 -59 20 -96 67 -124 56 -35 158
-22 196 23 10 12 7 19 -15 36 -26 21 -26 21 -51 1 -35 -28 -69 -25 -101 8
l-27 27 108 3 107 3 0 32 c-1 49 -34 113 -69 131 -41 22 -119 20 -157 -3z"/>
<path d="M1340 470 l0 -150 40 0 40 0 0 150 0 150 -40 0 -40 0 0 -150z"/>
<path d="M1850 470 l0 -150 40 0 40 0 0 104 c0 97 2 106 22 120 29 20 62 20
82 0 13 -12 16 -38 16 -120 l0 -104 35 0 35 0 0 125 c0 120 -1 127 -25 150
-19 20 -34 25 -75 25 -28 0 -60 -5 -71 -10 -13 -7 -19 -7 -19 0 0 5 -18 10
-40 10 l-40 0 0 -150z"/>
<path d="M2180 520 c0 -163 33 -206 152 -198 47 4 64 10 86 31 26 26 27 32 30
147 l4 120 -35 0 -35 0 -4 -99 c-2 -80 -7 -103 -22 -120 -23 -25 -44 -27 -74
-5 -20 14 -22 23 -22 120 l0 104 -40 0 -40 0 0 -100z"/>
<path d="M2510 470 l0 -150 40 0 40 0 0 110 c0 98 2 110 19 120 30 16 59 12
71 -9 5 -11 10 -65 10 -120 l0 -101 35 0 35 0 0 105 c0 100 1 105 24 121 34
22 69 15 77 -16 4 -14 7 -67 8 -117 l1 -93 36 0 36 0 -4 131 c-3 123 -4 132
-27 150 -28 23 -100 25 -140 4 -26 -13 -30 -13 -41 0 -14 17 -91 20 -121 5
-13 -7 -19 -7 -19 0 0 5 -18 10 -40 10 l-40 0 0 -150z"/>
<path d="M3030 582 c-38 -38 -40 -42 -40 -103 0 -107 49 -159 148 -159 34 0
59 7 82 23 44 29 46 39 13 59 -26 15 -29 15 -52 -3 -33 -27 -67 -24 -99 9
l-27 27 108 3 107 3 0 35 c0 43 -21 93 -49 119 -16 13 -41 20 -87 23 -64 4
-64 4 -104 -36z"/>
<path d="M3320 470 l0 -150 35 0 35 0 0 99 c0 96 1 100 26 120 15 12 40 21 55
21 26 0 29 4 29 30 0 28 -3 30 -36 30 -19 0 -44 -5 -55 -10 -13 -7 -19 -7 -19
0 0 5 -16 10 -35 10 l-35 0 0 -150z"/>
<path d="M3530 470 l0 -150 40 0 40 0 0 150 0 150 -40 0 -40 0 0 -150z"/>
<path d="M3700 590 c-60 -64 -52 -195 15 -248 30 -24 86 -29 129 -12 l26 10 0
-65 0 -65 35 0 35 0 0 205 0 205 -35 0 c-19 0 -35 -5 -35 -10 0 -7 -6 -7 -19
0 -11 5 -43 10 -71 10 -45 0 -56 -4 -80 -30z m148 -46 c18 -13 22 -25 22 -74
0 -49 -4 -61 -22 -74 -56 -40 -108 -4 -108 74 0 78 52 114 108 74z"/>
<path d="M4000 528 c0 -171 30 -212 149 -205 57 3 67 7 92 35 28 32 29 35 29
147 l0 115 -35 0 -35 0 0 -90 c0 -49 -5 -101 -12 -115 -15 -33 -51 -42 -83
-21 -24 16 -25 21 -25 121 l0 105 -40 0 -40 0 0 -92z"/>
<path d="M4376 599 c-39 -30 -56 -71 -56 -131 0 -95 53 -148 148 -148 34 0 59
7 82 23 43 28 45 38 15 60 -24 17 -26 17 -54 -4 -20 -15 -37 -20 -54 -15 -27
6 -57 31 -57 47 0 5 45 9 100 9 l100 0 0 40 c0 49 -20 91 -56 119 -20 16 -41
21 -84 21 -43 0 -64 -5 -84 -21z"/>
<path d="M5192 600 c-39 -24 -62 -73 -62 -130 0 -47 17 -85 54 -119 35 -33
118 -40 171 -16 47 23 55 43 25 65 -22 17 -25 17 -54 -1 -17 -10 -38 -19 -47
-19 -19 0 -69 37 -69 50 0 5 46 11 103 12 l102 3 -3 44 c-5 85 -54 131 -139
131 -30 0 -60 -7 -81 -20z"/>
<path d="M5486 599 c-20 -16 -26 -29 -26 -59 0 -47 23 -72 83 -89 55 -17 81
-39 66 -58 -16 -19 -49 -16 -87 7 -32 19 -34 20 -57 3 -29 -21 -28 -30 9 -57
22 -17 42 -21 101 -21 91 0 115 17 115 80 0 55 -14 71 -85 98 -67 26 -88 57
-38 57 16 0 38 -6 48 -14 16 -12 22 -12 42 1 13 9 23 21 23 29 0 43 -146 60
-194 23z"/>
<path d="M5910 470 l0 -150 35 0 35 0 0 103 c0 88 3 106 18 120 22 20 53 22
70 5 8 -8 12 -49 12 -120 l0 -108 40 0 40 0 0 106 c0 114 8 133 56 134 38 0
44 -19 44 -132 l0 -108 35 0 35 0 0 128 c0 121 -1 130 -23 150 -28 26 -111 31
-142 8 -17 -12 -22 -12 -39 0 -24 16 -99 19 -127 4 -13 -7 -19 -7 -19 0 0 5
-16 10 -35 10 l-35 0 0 -150z"/>
<path d="M6442 600 c-39 -24 -62 -73 -62 -130 0 -47 17 -85 54 -119 35 -33
118 -40 171 -16 47 23 55 43 25 65 -22 17 -25 17 -54 -1 -17 -10 -38 -19 -47
-19 -19 0 -69 37 -69 51 0 5 45 9 99 9 55 0 102 4 106 9 3 6 2 29 -1 53 -5 31
-18 54 -44 81 -34 34 -43 37 -91 37 -37 0 -65 -7 -87 -20z"/>
<path d="M7092 600 c-87 -53 -80 -220 12 -264 43 -20 108 -21 151 0 44 20 52
44 24 65 -21 16 -24 16 -53 -2 -17 -10 -38 -19 -47 -19 -19 0 -69 37 -69 51 0
5 45 9 99 9 111 0 114 1 101 70 -6 32 -18 54 -44 77 -31 29 -43 33 -88 33 -36
0 -64 -7 -86 -20z"/>
<path d="M7393 586 c-34 -31 -37 -39 -41 -98 -7 -115 45 -172 151 -165 49 3
63 8 90 35 31 31 31 32 12 47 -27 20 -42 19 -67 -5 -40 -37 -90 -21 -108 35
-30 90 45 158 113 104 22 -17 30 -18 49 -8 32 16 31 15 19 38 -18 32 -64 51
-126 51 -49 0 -60 -4 -92 -34z"/>
<path d="M7660 470 l0 -150 40 0 40 0 0 150 0 150 -40 0 -40 0 0 -150z"/>
<path d="M7800 470 l0 -150 40 0 40 0 0 104 c0 97 2 106 22 120 29 20 62 20
82 0 13 -12 16 -38 16 -120 l0 -104 35 0 35 0 0 125 c0 120 -1 127 -25 150
-19 20 -34 25 -75 25 -28 0 -60 -5 -71 -10 -13 -7 -19 -7 -19 0 0 5 -18 10
-40 10 l-40 0 0 -150z"/>
<path d="M8156 599 c-20 -16 -26 -29 -26 -58 0 -47 26 -72 97 -95 53 -18 70
-35 50 -55 -17 -17 -48 -13 -86 10 l-34 21 -24 -25 -25 -24 33 -24 c48 -34
153 -40 191 -10 33 26 44 71 26 108 -10 20 -31 35 -78 54 -66 26 -84 51 -42
57 13 2 34 -4 47 -12 23 -15 26 -14 52 8 l27 24 -34 21 c-48 29 -137 29 -174
0z"/>
<path d="M8612 595 c-65 -55 -59 -211 10 -259 25 -18 100 -21 129 -6 16 9 19
7 19 -10 0 -11 -9 -29 -21 -41 -24 -24 -70 -21 -101 8 -16 14 -22 14 -43 3
-36 -19 -28 -41 25 -68 83 -43 181 -15 207 59 7 20 12 96 12 187 l1 152 -40 0
c-22 0 -40 -5 -40 -10 0 -7 -6 -7 -19 0 -38 20 -107 12 -139 -15z m139 -45
c16 -9 19 -22 19 -79 0 -67 -1 -69 -30 -81 -39 -16 -76 -1 -90 36 -33 86 29
162 101 124z"/>
<path d="M8959 603 c-60 -37 -82 -141 -45 -211 37 -71 147 -96 216 -49 44 29
46 39 13 59 -26 15 -29 15 -52 -3 -33 -27 -67 -24 -99 9 l-27 27 108 3 107 3
0 35 c0 52 -25 101 -62 124 -41 25 -122 26 -159 3z"/>
<path d="M9230 470 l0 -150 35 0 35 0 0 104 c0 97 2 106 22 120 27 19 69 21
86 4 8 -8 12 -49 12 -120 l0 -108 40 0 40 0 0 105 c0 114 -14 166 -48 184 -27
14 -98 14 -125 0 -16 -9 -22 -9 -25 0 -2 6 -19 11 -38 11 l-34 0 0 -150z"/>
<path d="M9604 601 c-57 -35 -80 -134 -46 -201 38 -76 146 -105 220 -60 37 23
41 43 10 64 -19 14 -23 13 -46 -4 -34 -28 -68 -25 -100 8 l-27 27 109 3 109 3
-7 45 c-8 60 -30 101 -66 119 -41 21 -118 19 -156 -4z"/>
<path d="M9870 470 l0 -150 40 0 40 0 0 105 0 104 30 16 c16 8 38 15 50 15 16
0 20 6 20 30 0 27 -3 30 -31 30 -17 0 -39 -5 -50 -10 -13 -7 -19 -7 -19 0 0 5
-18 10 -40 10 l-40 0 0 -150z"/>
<path d="M10111 599 l-34 -20 21 -21 c18 -18 24 -19 53 -9 48 17 76 13 93 -11
23 -32 21 -51 -3 -38 -38 20 -107 12 -140 -16 -26 -21 -31 -33 -31 -69 0 -36
5 -48 31 -69 33 -28 102 -36 140 -16 13 7 19 7 19 0 0 -5 16 -10 36 -10 l36 0
-4 126 c-3 124 -3 126 -31 150 -38 32 -135 34 -186 3z"/>
<path d="M10540 470 l0 -150 35 0 35 0 0 150 0 150 -35 0 -35 0 0 -150z"/>
<path d="M10696 597 c-30 -30 -34 -71 -11 -104 9 -12 43 -32 76 -44 62 -23 83
-44 58 -60 -18 -12 -68 -3 -90 17 -16 14 -20 14 -43 -1 -37 -24 -32 -40 17
-64 73 -35 183 -22 201 24 24 63 -9 113 -94 144 -35 13 -60 27 -57 34 6 18 56
20 81 3 22 -14 25 -13 45 8 l21 23 -21 19 c-15 13 -40 20 -89 22 -63 4 -71 2
-94 -21z"/>
<path d="M11209 603 c-59 -36 -82 -138 -48 -208 35 -73 149 -100 219 -52 44
29 46 39 13 59 -26 15 -29 15 -52 -3 -33 -27 -67 -24 -99 9 l-27 27 108 3 107
3 0 35 c0 49 -27 103 -64 125 -39 24 -121 25 -157 2z"/>
<path d="M11495 595 c-30 -29 -33 -74 -7 -104 9 -12 44 -31 77 -44 67 -26 83
-52 39 -63 -20 -5 -39 -1 -65 14 -33 19 -38 20 -58 6 -11 -8 -21 -22 -21 -29
0 -25 74 -55 135 -55 49 0 60 4 86 29 58 58 28 126 -71 159 -56 19 -73 44 -33
50 12 2 35 -4 51 -12 28 -14 31 -14 52 9 l22 24 -33 20 c-51 31 -142 29 -174
-4z"/>
</g>
</svg>
