<?xml version="1.0" encoding="utf-8"?>
<!-- Generator: Adobe Illustrator 24.0.3, SVG Export Plug-In . SVG Version: 6.00 Build 0)  -->
<svg version="1.1" id="Calque_1" xmlns="http://www.w3.org/2000/svg" xmlns:xlink="http://www.w3.org/1999/xlink" x="0px" y="0px"
	 viewBox="0 0 412 124" style="enable-background:new 0 0 412 124;" xml:space="preserve">
<style type="text/css">
	.st0{fill:#1E1E1C;}
	.st1{font-family:'MyriadPro-Regular';}
	.st2{font-size:12px;}
</style>
<g>
	<g>
		<path class="st0" d="M162,62.7v15.6c-1.5,0.2-3.1,0.3-5.1,0.3c-8.5,0-13.9-6.1-13.9-15.8c0-9.9,5.2-15.8,14.2-15.8
			c4.1,0,7.9,1,10.9,3c4.9-2.7,8.2-8.6,9.1-13.9c-4.5-2.9-11.2-5.1-19.7-5.1c-19.9,0-32.6,13.4-32.6,32c0,18.7,11.8,31.2,32,31.2
			c11.2,0,17.1-2.4,21.8-4.7V62.7c-2.8-0.5-5.6-0.7-8.3-0.7C167.5,62,164.8,62.3,162,62.7z"/>
		<path class="st0" d="M43.4,33.2v59.2c3,0.5,5.7,0.7,8.5,0.7c2.8,0,5.5-0.2,8.2-0.7V33.2c-3-0.5-5.7-0.7-8.5-0.7
			C48.8,32.5,46,32.7,43.4,33.2z"/>
		<path class="st0" d="M106.3,32.6C103.7,47,100,62,95.3,76.4c-4.8-14.3-9-28.9-11.8-43.8c-1.5-0.1-3.3-0.2-5.3-0.2
			c-4.3,0-9.4,0.5-13.1,1.1c4.3,20.3,11.2,39.9,20.4,58.7c3.4,0.6,5.9,0.7,9.2,0.7c2.9,0,5.7-0.1,8.5-0.7
			c9.6-19.4,16.4-39.1,20.3-58.7c-1.7-0.5-8.6-1.1-13.2-1.1C108.7,32.5,107.3,32.5,106.3,32.6z"/>
		<path class="st0" d="M240.3,80.5c-3.4,2.8-7.3,4.8-15.3,4.8c-11.9,0-21.5-9.2-21.5-24.2c0-15.2,9.7-24.3,22-24.3
			c5.6,0,9.9,1.5,13.9,4.3c2.2-1.1,3.8-3.6,4.2-5.8c-4.1-3.1-9.9-5.5-18.1-5.5c-16.8,0-29.9,13.1-29.9,31.4
			c0,18.2,11.9,31.2,29.3,31.2c9.8,0,15.6-3.2,19.1-6.1C243.6,83.5,242.8,82,240.3,80.5z"/>
		<path class="st0" d="M262.5,84.1V31.5c-1.3-0.3-2.6-0.5-3.9-0.5c-1.2,0-2.3,0.2-3.6,0.5v59.4h34.6c0.4-1.3,0.5-2.5,0.5-3.6
			c0-1-0.1-2-0.5-3.2C289.6,84.1,262.5,84.1,262.5,84.1z"/>
		<path class="st0" d="M300,31.5v59.4c1.4,0.3,2.5,0.5,3.8,0.5c1.3,0,2.4-0.2,3.7-0.5V31.5c-1.3-0.5-2.5-0.6-3.7-0.6
			C302.5,30.9,301.3,31,300,31.5z"/>
		<path class="st0" d="M364.8,80.5c-3.4,2.8-7.3,4.8-15.3,4.8c-11.9,0-21.5-9.2-21.5-24.2c0-15.2,9.7-24.3,22-24.3
			c5.6,0,9.9,1.5,13.9,4.3c2.2-1.1,3.8-3.6,4.2-5.8c-4.1-3.1-9.9-5.5-18-5.5c-16.8,0-29.9,13.1-29.9,31.4
			c0,18.2,11.9,31.2,29.3,31.2c9.8,0,15.6-3.2,19.1-6.1C368.2,83.5,367.3,82,364.8,80.5z"/>
	</g>
	<text transform="matrix(1 0 0 1 149.7195 46.9787)" class="st1 st2">®</text>
	<g>
		<path d="M393.1,38.9c0,5.4-4.2,9.6-9.8,9.6c-5.5,0-9.8-4.2-9.8-9.6c0-5.3,4.4-9.5,9.8-9.5C388.9,29.4,393.1,33.6,393.1,38.9z
			 M376,38.9c0,4.2,3.1,7.6,7.4,7.6c4.2,0,7.3-3.4,7.3-7.6c0-4.2-3.1-7.7-7.3-7.7S376,34.7,376,38.9z M381.9,43.9h-2.2v-9.5
			c0.9-0.2,2.1-0.3,3.7-0.3c1.8,0,2.6,0.3,3.3,0.7c0.5,0.4,0.9,1.2,0.9,2.1c0,1-0.8,1.9-2,2.2v0.1c0.9,0.3,1.5,1,1.7,2.3
			c0.3,1.5,0.5,2,0.7,2.4h-2.4c-0.3-0.3-0.5-1.2-0.8-2.3c-0.2-1-0.8-1.5-2-1.5h-1V43.9z M381.9,38.5h1c1.2,0,2.2-0.4,2.2-1.4
			c0-0.9-0.6-1.5-2-1.5c-0.6,0-1,0.1-1.2,0.1V38.5z"/>
	</g>
</g>
</svg>
