<?xml version="1.0" encoding="utf-8"?>
<!-- Generator: Adobe Illustrator 24.0.3, SVG Export Plug-In . SVG Version: 6.00 Build 0)  -->
<svg version="1.1" id="Calque_1" xmlns="http://www.w3.org/2000/svg" xmlns:xlink="http://www.w3.org/1999/xlink" x="0px" y="0px"
	 viewBox="0 0 326.16 389.51" style="enable-background:new 0 0 326.16 389.51;" xml:space="preserve">
<style type="text/css">
	.st0{fill:#D21416;}
	.st1{fill:#B2B2B2;}
	.st2{fill:none;}
	.st3{fill:#010101;}
</style>
<g>
	<path class="st0" d="M269.21,214.96h-14.13h-31.69v93.24h31.69h14.13H302v-93.24H269.21z M276.18,281.59l-6.97,9.24l-6.52,8.64
		l-7.61-10.09l-5.88-7.79l-13.49-17.87h14.73v-35.99h4.63h14.13h5.73v35.99h14.73L276.18,281.59z"/>
	<g>
		<path class="st1" d="M52.78,131.88h189.88c1.12,0,2.02-0.9,2.02-2.02c0-1.11-0.9-2.02-2.02-2.02H52.78c-1.11,0-2.02,0.9-2.02,2.02
			C50.76,130.98,51.66,131.88,52.78,131.88z"/>
		<path class="st1" d="M52.78,147.38h189.88c1.12,0,2.02-0.9,2.02-2.02c0-1.11-0.9-2.02-2.02-2.02H52.78c-1.11,0-2.02,0.9-2.02,2.02
			C50.76,146.48,51.66,147.38,52.78,147.38z"/>
		<path class="st1" d="M52.78,162.88h189.88c1.12,0,2.02-0.9,2.02-2.02c0-1.11-0.9-2.02-2.02-2.02H52.78c-1.11,0-2.02,0.9-2.02,2.02
			C50.76,161.98,51.66,162.88,52.78,162.88z"/>
		<path class="st1" d="M52.78,178.38h189.88c1.12,0,2.02-0.9,2.02-2.02c0-1.11-0.9-2.02-2.02-2.02H52.78c-1.11,0-2.02,0.9-2.02,2.02
			C50.76,177.48,51.66,178.38,52.78,178.38z"/>
		<path class="st1" d="M52.78,193.89h189.88c1.12,0,2.02-0.9,2.02-2.02c0-1.11-0.9-2.02-2.02-2.02H52.78c-1.11,0-2.02,0.9-2.02,2.02
			C50.76,192.98,51.66,193.89,52.78,193.89z"/>
		<path class="st1" d="M52.78,209.39h189.88c1.12,0,2.02-0.9,2.02-2.02c0-1.11-0.9-2.02-2.02-2.02H52.78c-1.11,0-2.02,0.9-2.02,2.02
			C50.76,208.48,51.66,209.39,52.78,209.39z"/>
		<path class="st1" d="M52.78,224.89h157.82c1.12,0,2.02-0.9,2.02-2.02c0-1.11-0.9-2.02-2.02-2.02H52.78c-1.11,0-2.02,0.9-2.02,2.02
			C50.76,223.98,51.66,224.89,52.78,224.89z"/>
		<path class="st1" d="M52.78,240.39h157.82c1.12,0,2.02-0.9,2.02-2.02c0-1.11-0.9-2.02-2.02-2.02H52.78c-1.11,0-2.02,0.9-2.02,2.02
			C50.76,239.48,51.66,240.39,52.78,240.39z"/>
		<path class="st1" d="M52.78,255.89h157.82c1.12,0,2.02-0.9,2.02-2.02c0-1.11-0.9-2.02-2.02-2.02H52.78c-1.11,0-2.02,0.9-2.02,2.02
			C50.76,254.98,51.66,255.89,52.78,255.89z"/>
		<path class="st1" d="M52.78,271.39h157.82c1.12,0,2.02-0.9,2.02-2.02c0-1.11-0.9-2.02-2.02-2.02H52.78c-1.11,0-2.02,0.9-2.02,2.02
			C50.76,270.48,51.66,271.39,52.78,271.39z"/>
		<path class="st1" d="M52.78,286.89h157.82c1.12,0,2.02-0.9,2.02-2.02s-0.9-2.02-2.02-2.02H52.78c-1.11,0-2.02,0.9-2.02,2.02
			S51.66,286.89,52.78,286.89z"/>
		<path class="st1" d="M52.78,302.39h157.82c1.12,0,2.02-0.9,2.02-2.02s-0.9-2.02-2.02-2.02H52.78c-1.11,0-2.02,0.9-2.02,2.02
			S51.66,302.39,52.78,302.39z"/>
		<path class="st1" d="M50.76,315.87c0,1.11,0.9,2.02,2.02,2.02h189.88c1.12,0,2.02-0.9,2.02-2.02c0-1.11-0.9-2.02-2.02-2.02H52.78
			C51.66,313.85,50.76,314.75,50.76,315.87z"/>
		<path class="st1" d="M242.66,329.35H52.78c-1.11,0-2.02,0.9-2.02,2.02s0.9,2.02,2.02,2.02h189.88c1.12,0,2.02-0.9,2.02-2.02
			S243.77,329.35,242.66,329.35z"/>
	</g>
	<g>
		<g>
			<path class="st0" d="M75.91,77.25h-2.85v8.24h2.85c3.15,0,4.73-1.37,4.73-4.12C80.64,78.63,79.06,77.25,75.91,77.25z"/>
			<path class="st0" d="M111.63,80.23c-0.8-0.82-1.79-1.46-2.96-1.93c-1.17-0.47-2.48-0.7-3.94-0.7h-1.97v18.49h1.97
				c1.49,0,2.82-0.23,3.99-0.7c1.17-0.47,2.15-1.11,2.96-1.93c0.8-0.82,1.42-1.79,1.84-2.91c0.42-1.12,0.63-2.36,0.63-3.7
				c0-1.31-0.22-2.54-0.66-3.68C113.06,82.03,112.43,81.05,111.63,80.23z"/>
			<path class="st0" d="M159.23,59.95H52.78v53.8h106.45V59.95z M86.66,89.52c-1.97,1.93-4.81,2.89-8.52,2.89h-5.08v10.95h-8.59
				V70.33h13.67c3.71,0,6.55,0.96,8.52,2.89c1.97,1.93,2.96,4.64,2.96,8.15C89.62,84.88,88.63,87.59,86.66,89.52z M121.89,93.09
				c-0.83,2-1.99,3.76-3.46,5.28c-1.47,1.52-3.2,2.73-5.17,3.64c-1.97,0.91-4.1,1.36-6.37,1.36H94.17V70.33h12.71
				c2.25,0,4.36,0.45,6.33,1.36c1.97,0.91,3.69,2.11,5.17,3.61c1.47,1.5,2.63,3.26,3.48,5.26c0.85,2,1.27,4.1,1.27,6.29
				C123.13,89.01,122.72,91.09,121.89,93.09z M147.54,77.6H137.2v5.52h9.42v7.27h-9.42v12.97h-8.59V70.33h18.93V77.6z"/>
		</g>
	</g>
	<polygon class="st2" points="210.59,100.44 242.66,100.44 210.59,61.64 	"/>
	<path class="st3" d="M269.21,205.35v-90.77v-4.19l-1.07-1.29l-13.07-15.81l-39.93-48.33l-11.68-14.13h-7H24.16v78.27v5.48v244.11
		h245.05V317.8h-14.13v26.75h0v0H38.29v0V123.23v-8.65v-5.48V44.95h158.17v69.62h57.88l0.74,0.89v89.88H269.21z M210.59,100.44
		V61.64l32.07,38.81H210.59z"/>
</g>
</svg>
